<svg height="480pt" viewBox="0 -52 480 480" width="480pt" xmlns="http://www.w3.org/2000/svg"><path d="m80 224c-4.417969 0-8 3.582031-8 8v14.398438c.117188 39.898437-15.726562 78.183593-44 106.328124l-9.601562 9.601563c-2.078126 2.007813-2.914063 4.984375-2.179688 7.78125.730469 2.796875 2.917969 4.980469 5.714844 5.710937 2.796875.734376 5.769531-.101562 7.777344-2.179687l9.601562-9.601563c31.285156-31.136718 48.816406-73.496093 48.6875-117.640624v-14.398438c0-4.417969-3.582031-8-8-8zm0 0"/><path d="m400 224c-4.417969 0-8 3.582031-8 8v14.398438c-.121094 44.148437 17.425781 86.507812 48.726562 117.640624l9.601563 9.601563c3.140625 3.03125 8.128906 2.988281 11.214844-.097656 3.085937-3.085938 3.128906-8.074219.097656-11.214844l-9.601563-9.601563c-28.289062-28.136718-44.148437-66.425781-44.039062-106.328124v-14.398438c0-4.417969-3.582031-8-8-8zm0 0"/><path d="m125.65625 373.65625c27.199219-27.050781 42.449219-63.863281 42.34375-102.222656v-23.433594c0-4.417969-3.582031-8-8-8s-8 3.582031-8 8v23.433594c.09375 34.117187-13.464844 66.851562-37.65625 90.910156-2.078125 2.007812-2.914062 4.984375-2.179688 7.78125.730469 2.796875 2.914063 4.980469 5.710938 5.710938 2.796875.734374 5.773438-.101563 7.78125-2.179688zm0 0"/><path d="m320 240c-4.417969 0-8 3.582031-8 8v23.433594c-.105469 38.359375 15.144531 75.171875 42.34375 102.222656 3.140625 3.03125 8.128906 2.988281 11.214844-.097656 3.085937-3.085938 3.128906-8.074219.097656-11.214844-24.191406-24.058594-37.75-56.792969-37.65625-90.910156v-23.433594c0-4.417969-3.582031-8-8-8zm0 0"/><path d="m240 368v-128c0-4.417969-3.582031-8-8-8s-8 3.582031-8 8v128c0 4.417969 3.582031 8 8 8s8-3.582031 8-8zm0 0"/><path d="m456 0h-432c-13.253906 0-24 10.746094-24 24v160c0 13.253906 10.746094 24 24 24h432c13.253906 0 24-10.746094 24-24v-160c0-13.253906-10.746094-24-24-24zm-400 192v-16h368v16zm368-32h-368v-16h368zm40 24c0 4.417969-3.582031 8-8 8h-16v-64h-400v64h-16c-4.417969 0-8-3.582031-8-8v-160c0-4.417969 3.582031-8 8-8h432c4.417969 0 8 3.582031 8 8zm0 0"/><path d="m160 56h160v16h-160zm0 0"/><path d="m432 32h16v16h-16zm0 0"/><path d="m400 32h16v16h-16zm0 0"/></svg>