<svg height="480pt" viewBox="-84 0 480 480" width="480pt" xmlns="http://www.w3.org/2000/svg"><path d="m304 420.503906v-73c-.011719-15.179687-12.316406-27.484375-27.496094-27.503906h-28.503906v-32h-7.199219l4.109375-42.496094 19.53125-19.265625c30.007813-28.691406 47.15625-68.289062 47.558594-109.804687v-52.679688c-.019531-13.113281-10.640625-23.734375-23.753906-23.753906h-32.246094v-8.199219c-1.1875-14.1875-13.550781-24.789062-27.753906-23.800781h-68.246094v-8h-16v8h-68.246094c-14.203125-.988281-26.566406 9.613281-27.753906 23.800781v8.199219h-8.800781l24 248h-7.199219v32h-28.496094c-15.183594.019531-27.4843748 12.320312-27.503906 27.503906v73c.03125 10.707032 6.273438 20.421875 16 24.894532v34.601562h48v-32h176v32h48v-34.601562c9.726562-4.472657 15.96875-14.1875 16-24.894532zm-15.753906-364.503906c4.28125.003906 7.75 3.472656 7.753906 7.753906v52.679688c-.414062 37.21875-15.832031 72.699218-42.761719 98.398437l-5.910156 5.824219 15.9375-164.65625zm-224.246094-24.199219c0-4.160156 5.496094-7.800781 11.753906-7.800781h152.492188c6.257812 0 11.753906 3.640625 11.753906 7.800781v8.199219h-176zm-7.199219 24.199219h190.398438l-22.464844 232h-145.46875zm15.199219 248h160v16h-160zm-24 160h-16v-16h16zm224 0h-16v-16h16zm16-43.496094c-.007812 6.34375-5.152344 11.488282-11.496094 11.496094h-249c-6.347656-.003906-11.496094-5.148438-11.503906-11.496094v-73c.007812-6.351562 5.152344-11.496094 11.503906-11.503906h249c6.347656.007812 11.492188 5.15625 11.496094 11.503906zm0 0"/><path d="m152 352c-17.671875 0-32 14.328125-32 32s14.328125 32 32 32 32-14.328125 32-32-14.328125-32-32-32zm0 48c-8.835938 0-16-7.164062-16-16s7.164062-16 16-16 16 7.164062 16 16-7.164062 16-16 16zm0 0"/><path d="m40 352h16v64h-16zm0 0"/><path d="m248 352h16v64h-16zm0 0"/><path d="m74.398438 72 19.363281 200h116.445312l19.394531-200zm121.289062 184h-87.375l-16.257812-168h119.890624zm0 0"/></svg>