<svg height="480pt" viewBox="-80 0 480 480" width="480pt" xmlns="http://www.w3.org/2000/svg"><path d="m8 280h24v192c0 4.417969 3.582031 8 8 8h32c4.417969 0 8-3.582031 8-8v-144h160v144c0 4.417969 3.582031 8 8 8h32c4.417969 0 8-3.582031 8-8v-192h24c4.417969 0 8-3.582031 8-8v-112c0-4.417969-3.582031-8-8-8h-32c-4.417969 0-8 3.582031-8 8v57.472656c-2.5625-.949218-5.269531-1.445312-8-1.472656h-8v-120c0-53.019531-42.980469-96-96-96s-96 42.980469-96 96v120h-8c-2.730469.027344-5.4375.523438-8 1.472656v-57.472656c0-4.417969-3.582031-8-8-8h-32c-4.417969 0-8 3.582031-8 8v112c0 4.417969 3.582031 8 8 8zm264 0v32h-224v-32zm-208 184h-16v-136h16zm208 0h-16v-136h16zm16-296h16v96h-16zm-208-72c0-44.183594 35.816406-80 80-80s80 35.816406 80 80v120h-160zm-24 136h208c4.417969 0 8 3.582031 8 8v16c0 4.417969-3.582031 8-8 8h-208c-4.417969 0-8-3.582031-8-8v-16c0-4.417969 3.582031-8 8-8zm-40-64h16v96h-16zm0 0"/></svg>