<svg height="480pt" viewBox="0 -31 480 479" width="480pt" xmlns="http://www.w3.org/2000/svg"><path d="m383.671875 200.5h-16c0 30.878906-30.984375 56-69.054687 56v16c46.894531 0 85.054687-32.304688 85.054687-72zm0 0"/><path d="m472 328.5h-32v-32c0-4.417969-3.582031-8-8-8h-78.992188c46.945313-21.847656 78.824219-63.839844 78.824219-112 0-4.417969-3.582031-8-8-8h-231.832031v-32h-16v32h-79.671875c-4.417969 0-8 3.582031-8 8 0 48.160156 31.878906 90.152344 78.832031 112h-111.160156v-120h40c4.417969 0 8-3.582031 8-8v-32c0-4.417969-3.582031-8-8-8h-8v-16h24v-16h-32c-4.417969 0-8 3.582031-8 8v24h-16v-65c0-3.800781 4.351562-7 9.503906-7h77c5.144532 0 9.496094 3.199219 9.496094 7v25c0 4.417969 3.582031 8 8 8h40c4.417969 0 8-3.582031 8-8v-27c0-29.222656-27.816406-53-62-53h-90.601562c-30.550782 0-55.398438 21.3125-55.398438 47.503906v256.496094h424v96h-424v16h432c4.417969 0 8-3.582031 8-8v-32h32c4.417969 0 8-3.582031 8-8v-32c0-4.417969-3.582031-8-8-8zm-384-176h-72v-16h72zm-32.601562-136h90.601562c25.359375 0 46 16.601562 46 37v19h-24v-17c-.742188-13.367188-12.125-23.636719-25.496094-23h-77c-13.375-.640625-24.761718 9.628906-25.503906 23v65h-24v-72.496094c0-17.367187 17.671875-31.503906 39.398438-31.503906zm-39.398438 152h24v120h-24zm224.800781 120c-72 0-131.128906-45.96875-136.144531-104h310.839844c-5.023438 58.03125-64.167969 104-136.152344 104zm223.199219 72h-24v-16h24zm0 0"/><path d="m176 104.5h16v16h-16zm0 0"/><path d="m384 320.5h16v16h-16zm0 0"/><path d="m384 368.5h16v16h-16zm0 0"/><path d="m0 320.5h16v16h-16zm0 0"/><path d="m0 368.5h16v16h-16zm0 0"/></svg>