<svg height="471pt" viewBox="0 -3 471.49278 471" width="471pt" xmlns="http://www.w3.org/2000/svg"><path d="m0 264.246094c-.0273438 11.660156 8.363281 21.636718 19.855469 23.609375v42.085937c-.050781 34.390625 14.800781 67.117188 40.722656 89.722656l-11.121094 11.320313c-5.492187 5.589844-7.113281 13.914063-4.128906 21.160156 2.984375 7.242188 10.003906 12.003907 17.839844 12.101563h12c7.742187-.027344 15.152343-3.148438 20.585937-8.664063l11.070313-11.335937c9.574219 2.609375 19.445312 3.953125 29.367187 4h199.328125c9.921875-.046875 19.796875-1.390625 29.367188-4l11.105469 11.304687c5.421874 5.527344 12.832031 8.660157 20.574218 8.695313h12c7.832032-.109375 14.839844-4.878906 17.820313-12.121094s1.355469-15.5625-4.128907-21.148438l-11.113281-11.3125c25.914063-22.609374 40.761719-55.332031 40.710938-89.722656v-42.085937c11.378906-2.105469 19.636719-12.027344 19.636719-23.601563 0-11.570312-8.257813-21.496094-19.636719-23.597656v-232.410156c0-4.417969-3.582031-8-8-8h-40c-2.148438 0-4.207031.867187-5.710938 2.402344l-10.289062 10.472656-5.320313-5.410156c-7.132812-7.269532-17.972656-9.464844-27.371094-5.542969-9.398437 3.925781-15.460937 13.175781-15.308593 23.359375-.023438 6.664062 2.585937 13.070312 7.257812 17.824218l22.0625 22.496094c7.140625 7.269532 17.992188 9.457032 27.390625 5.523438 9.398438-3.9375 15.457032-13.199219 15.289063-23.386719.023437-6.667969-2.585938-13.074219-7.261719-17.824219l-5.523438-5.601562 8.144532-8.3125h28.640625v184h-24v16h24v24h-320v-16.246094c-.027344-21.945312-17.808594-39.726562-39.75-39.753906h-20.9375l-.6875-.6875c-7.140625-7.140625-17.882813-9.277344-27.210938-5.414063-9.332031 3.867188-15.414062 12.972657-15.414062 23.070313-.019531 6.625 2.613281 12.984375 7.3125 17.65625l21.375 21.375h-16.796875c-13.183594.082031-23.808594 10.820312-23.746094 24zm386.886719-206.984375c-2.367188 0-4.636719-.960938-6.285157-2.664063l-22.066406-22.460937c-1.71875-1.769531-2.679687-4.140625-2.679687-6.609375-.078125-5.035156 3.933593-9.1875 8.96875-9.28125 2.371093.003906 4.640625.964844 6.296875 2.664062l22.054687 22.457032c1.71875 1.773437 2.679688 4.148437 2.679688 6.617187.082031 5.035156-3.929688 9.1875-8.96875 9.277344zm-302.566407 387.105469c-2.410156 2.480468-5.71875 3.878906-9.175781 3.878906h-12c-1.875-.074219-3.34375-1.640625-3.289062-3.519532 0-.945312.367187-1.855468 1.023437-2.535156l12.5625-12.800781c5.285156 3.480469 10.847656 6.523437 16.628906 9.097656zm326.511719-2.183594c.65625.683594 1.023438 1.59375 1.023438 2.542968.054687 1.886719-1.425781 3.460938-3.3125 3.519532h-12c-3.453125-.003906-6.757813-1.402344-9.167969-3.878906l-5.757812-5.863282c5.789062-2.570312 11.351562-5.617187 16.640624-9.105468zm25.023438-112.242188c.476562 55.933594-44.40625 101.695313-100.335938 102.304688h-199.328125c-55.929687-.609375-100.808594-46.371094-100.335937-102.304688v-41.695312h400zm19.855469-65.695312c.074218 4.335937-3.375 7.914062-7.710938 8h-424.289062c-4.417969 0-8-3.582032-8-8 0-4.417969 3.582031-8 8-8h424.289062c4.335938.089844 7.785156 3.664062 7.710938 8zm-379.605469-64c13.109375.019531 23.734375 10.644531 23.75 23.753906v4.933594l-28.6875-28.6875zm-45.601563 7.3125c-2.5625-2.5625-3.332031-6.414063-1.949218-9.765625 1.382812-3.347657 4.644531-5.539063 8.269531-5.546875 2.378906.011718 4.65625.953125 6.34375 2.625l45.375 45.375h-25.375zm0 0"/><path d="m419.855469 329.589844v-25.34375h-16v25.34375c.34375 38.617187-30.632813 70.222656-69.246094 70.65625h-26.753906v16h26.753906c47.445313-.441406 85.578125-39.207032 85.246094-86.65625zm0 0"/><path d="m310.152344 59.65625 15.996094-16.289062 11.421874 11.214843-16 16.289063zm0 0"/><path d="m262.15625 108.539062 31.992188-32.59375 11.421874 11.210938-31.992187 32.59375zm0 0"/><path d="m310.152344 92.246094 32-32.582032 11.421875 11.214844-32.003907 32.585938zm0 0"/><path d="m278.144531 124.820312 15.992188-16.292968 11.425781 11.210937-15.996094 16.296875zm0 0"/><path d="m342.152344 92.246094 15.992187-16.292969 11.425781 11.210937-15.996093 16.296876zm0 0"/><path d="m294.144531 141.109375 32.003907-32.585937 11.421874 11.21875-32.003906 32.585937zm0 0"/></svg>