<svg height="463pt" viewBox="-9 0 463 463.14653" width="463pt" xmlns="http://www.w3.org/2000/svg"><path d="m249.449219 23.148438c-6.03125-.019532-11.933594 1.761718-16.953125 5.109374l-2.023438-2.015624c-23.457031-23.386719-60.65625-25.648438-86.773437-5.28125l-1.601563-1.597657c-25.859375-25.816406-67.738281-25.816406-93.601562 0-31.117188 30.972657-48.5546878 73.109375-48.4218752 117.015625v326.769532h16.0000002v-248h16v248h16v-28.449219c4.84375 2.878906 10.367187 4.414062 16 4.449219h16c13.253906 0 24-10.746094 24-24v-16c0-13.257813-10.746094-24-24-24h-16c-5.632813.03125-11.15625 1.566406-16 4.445312v-241.535156c-.082031-30.492188 12.035156-59.753906 33.65625-81.257813 7.929687-7.902343 20.757812-7.902343 28.6875 0l.648437.648438c-12.875 25.3125-7.988281 56.03125 12.105469 76.097656l2.015625 2.015625c-8.796875 13.113281-6.179688 30.769531 6.042969 40.765625 12.226562 9.996094 30.046875 9.058594 41.15625-2.164063l98.71875-98.738281c8.761719-8.757812 11.382812-21.929687 6.640625-33.375-4.742188-11.445312-15.910156-18.90625-28.296875-18.902343zm-233.375 176v-16h16v16zm48 192h16c4.417969 0 8 3.578124 8 8v16c0 4.417968-3.582031 8-8 8h-16c-8.835938 0-16-7.164063-16-16 0-8.839844 7.164062-16 16-16zm6.34375-345.65625c-24.628907 24.496093-38.4375 57.828124-38.34375 92.566406v29.089844h-16v-30.769532c-.109375-39.667968 15.65625-77.730468 43.785156-105.703125 19.601563-19.554687 51.332031-19.554687 70.933594 0l1.21875 1.222657-8.839844 8.847656c-1.097656 1.097656-2.089844 2.257812-3.089844 3.410156-14.300781-12.761719-36.070312-12.179688-49.664062 1.335938zm49.519531 41.65625c-.035156-13.171876 5.199219-25.808594 14.535156-35.097657l14.503906-14.503906c19.402344-19.34375 50.792969-19.34375 70.195313 0l1.597656 1.601563-84.695312 84.6875-1.601563-1.601563c-9.335937-9.285156-14.570312-21.921875-14.535156-35.085937zm139.855469-23.027344-98.75 98.746094c-4.1875 4.175781-10.476563 5.425781-15.941407 3.160156-5.464843-2.265625-9.027343-7.597656-9.027343-13.511719-.011719-3.882813 1.53125-7.605469 4.28125-10.34375l98.75-98.746094c4.1875-4.175781 10.476562-5.425781 15.941406-3.160156 5.460937 2.265625 9.023437 7.597656 9.027344 13.511719.007812 3.882812-1.53125 7.605468-4.28125 10.34375zm0 0"/><path d="m282.414062 92.808594 11.316407-11.316406 32 32-11.3125 11.316406zm0 0"/><path d="m330.414062 140.804688 11.316407-11.3125 15.996093 15.996093-11.3125 11.316407zm0 0"/><path d="m362.417969 172.808594 11.3125-11.316406 32 32-11.3125 11.316406zm0 0"/><path d="m258.421875 116.800781 11.3125-11.3125 15.996094 16-11.3125 11.3125zm0 0"/><path d="m290.421875 148.804688 11.3125-11.316407 32.003906 32.003907-11.316406 11.3125zm0 0"/><path d="m338.421875 196.800781 11.3125-11.3125 16 16-11.316406 11.3125zm0 0"/><path d="m234.421875 132.808594 11.316406-11.3125 32 32-11.316406 11.3125zm0 0"/><path d="m282.421875 180.808594 11.3125-11.316406 16 16-11.316406 11.3125zm0 0"/><path d="m314.414062 212.804688 11.3125-11.3125 56 55.996093-11.316406 11.3125zm0 0"/><path d="m370.414062 228.804688 11.316407-11.316407 32 32.003907-11.3125 11.3125zm0 0"/><path d="m210.417969 156.804688 11.316406-11.3125 15.996094 15.996093-11.3125 11.3125zm0 0"/><path d="m242.421875 188.804688 11.3125-11.3125 32 32-11.3125 11.3125zm0 0"/><path d="m290.421875 236.804688 11.3125-11.3125 15.996094 15.996093-11.3125 11.3125zm0 0"/><path d="m322.421875 268.804688 11.316406-11.3125 32 32-11.316406 11.3125zm0 0"/><path d="m186.421875 180.800781 11.316406-11.3125 32 32-11.316406 11.316407zm0 0"/><path d="m234.417969 228.800781 11.3125-11.3125 32 32-11.3125 11.316407zm0 0"/><path d="m282.417969 276.800781 11.3125-11.3125 15.996093 15.996094-11.3125 11.3125zm0 0"/><path d="m314.417969 308.800781 11.3125-11.3125 32.003906 32-11.316406 11.316407zm0 0"/><path d="m362.417969 356.800781 11.3125-11.3125 16 15.996094-11.316407 11.3125zm0 0"/><path d="m370.421875 316.804688 11.3125-11.3125 16 15.996093-11.316406 11.3125zm0 0"/><path d="m386.421875 284.808594 11.3125-11.316406 15.996094 16-11.3125 11.3125zm0 0"/><path d="m418.414062 276.800781 11.316407-11.3125 15.996093 16-11.3125 11.3125zm0 0"/><path d="m410.417969 220.804688 11.3125-11.3125 15.996093 15.996093-11.3125 11.316407zm0 0"/></svg>