<svg height="480pt" viewBox="-8 0 480 480" width="480pt" xmlns="http://www.w3.org/2000/svg"><path d="m0 112v32c0 4.417969 3.582031 8 8 8h38.273438l57.855468 321.414062c.683594 3.8125 4 6.585938 7.871094 6.585938h240c3.871094 0 7.1875-2.773438 7.871094-6.585938l57.855468-321.414062h38.273438c4.417969 0 8-3.582031 8-8v-32c0-4.417969-3.582031-8-8-8h-29.601562l5.503906-30.585938c.421875-2.335937-.21875-4.738281-1.746094-6.558593-1.527344-1.816407-3.78125-2.863281-6.15625-2.855469h-8.96875c-4.464844-18.230469-23.832031-32-47.03125-32h-72v-24c0-4.417969-3.582031-8-8-8h-112c-4.417969 0-8 3.582031-8 8v24h-72c-23.199219 0-42.566406 13.769531-47.03125 32h-8.96875c-2.371094 0-4.617188 1.050781-6.136719 2.867188-1.519531 1.820312-2.15625 4.21875-1.734375 6.546874l5.472656 30.585938h-29.601562c-4.417969 0-8 3.582031-8 8zm345.3125 352h-226.625l-69.085938-384h364.796876zm102.6875-344v16h-27.390625l2.878906-16zm-264-104h96v16h-96zm-88 32h272c12.257812-.734375 23.898438 5.441406 30.167969 16h-332.335938c6.269531-10.558594 17.910157-16.734375 30.167969-16zm-80 72h24.511719l2.878906 16h-27.390625zm0 0"/><path d="m128 96h-40c-2.347656 0-4.574219 1.03125-6.09375 2.816406-1.523438 1.789063-2.179688 4.15625-1.800781 6.472656l56 344c.628906 3.867188 3.972656 6.710938 7.894531 6.710938h40c2.347656 0 4.574219-1.03125 6.09375-2.816406 1.523438-1.789063 2.179688-4.15625 1.800781-6.472656l-56-344c-.628906-3.867188-3.972656-6.710938-7.894531-6.710938zm22.808594 344-53.402344-328h23.785156l53.402344 328zm0 0"/><path d="m376 96h-40c-3.921875 0-7.265625 2.84375-7.894531 6.710938l-56 344c-.378907 2.316406.277343 4.683593 1.800781 6.472656 1.519531 1.785156 3.746094 2.816406 6.09375 2.816406h40c3.921875 0 7.265625-2.84375 7.894531-6.710938l56-344c.378907-2.316406-.277343-4.683593-1.800781-6.472656-1.519531-1.785156-3.746094-2.816406-6.09375-2.816406zm-62.808594 344h-23.785156l53.402344-328h23.785156zm0 0"/><path d="m256 96h-48c-4.417969 0-8 3.582031-8 8v344c0 4.417969 3.582031 8 8 8h48c4.417969 0 8-3.582031 8-8v-344c0-4.417969-3.582031-8-8-8zm-8 344h-32v-328h32zm0 0"/></svg>