<svg height="480pt" viewBox="0 -19 480 479" width="480pt" xmlns="http://www.w3.org/2000/svg"><path d="m384 152.78125h-80v-8c0-13.257812-10.746094-24-24-24h-24v-43.058594c1.179688-1.320312 2.25-2.734375 3.199219-4.230468l83.402343 15.152343 1.398438.136719c12.636719.019531 24.097656-7.410156 29.242188-18.953125 5.140624-11.539063 3.003906-25.03125-5.460938-34.414063-8.460938-9.382812-21.660156-12.898437-33.667969-8.96875l-70.847656 12.878907c2.789063-12.785157-2.488281-25.984375-13.324219-33.320313-10.835937-7.339844-25.046875-7.339844-35.882812 0-10.835938 7.335938-16.113282 20.535156-13.324219 33.320313l-70.847656-12.878907c-12.007813-3.929687-25.207031-.414062-33.667969 8.96875-8.464844 9.382813-10.601562 22.875-5.460938 34.414063 5.144532 11.542969 16.605469 18.972656 29.242188 18.953125h.71875l84.082031-15.289062c.949219 1.496093 2.019531 2.910156 3.199219 4.230468v43.058594h-16c-13.253906 0-24 10.742188-24 24v8h-120v-64h-32v-56h-16v368h16v-64h32v-72h127.015625c14.988281 15.347656 35.53125 24 56.984375 24s41.996094-8.652344 56.984375-24h77.511719c9.664062.007812 17.496094 7.839844 17.503906 17.503906v78.496094h37.65625l-15.488281 36.132812c-3.945313 9.292969-3.355469 19.894532 1.601562 28.691407 4.484375 8.105469 12.527344 13.621093 21.703125 14.886719 1.421875.1875 2.859375.285156 4.296875.289062 1.449219-.003906 2.898438-.101562 4.335938-.289062 9.175781-1.277344 17.214843-6.804688 21.695312-14.914063 4.953125-8.792969 5.546875-19.386719 1.597657-28.679687l-15.476563-36.117188h34.078125v-112c-.058594-52.996094-43.003906-95.945312-96-96zm61.871094 264.925781c-2.011719 3.738281-5.671875 6.304688-9.871094 6.921875-1.457031.191406-2.933594.191406-4.390625 0-4.207031-.613281-7.875-3.175781-9.898437-6.914062-2.503907-4.445313-2.800782-9.808594-.800782-14.503906l12.921875-30.128907 12.910157 30.136719c1.976562 4.703125 1.65625 10.058594-.871094 14.488281zm-229.871094-360.925781c0-8.839844 7.164062-16 16-16s16 7.160156 16 16c0 8.835938-7.164062 16-16 16s-16-7.164062-16-16zm48-1.320312 73.542969-13.386719 1.210937-.3125c1.679688-.621094 3.453125-.953125 5.246094-.980469 8.835938-.179688 16.144531 6.835938 16.324219 15.675781.179687 8.835938-6.839844 16.144531-15.675781 16.324219l-80.648438-14.679688zm-32-38.679688c7.34375.019531 13.730469 5.035156 15.488281 12.167969-9.578125-5.558594-21.398437-5.558594-30.976562 0 1.757812-7.132813 8.144531-12.148438 15.488281-12.167969zm-32 41.320312-80.648438 14.679688c-8.835937-.179688-15.855468-7.488281-15.675781-16.324219.179688-8.839843 7.488281-15.855469 16.324219-15.675781 1.792969.027344 3.566406.359375 5.246094.980469l74.753906 13.699219zm24 29.542969c5.226562 1.515625 10.773438 1.515625 16 0v33.136719h-16zm-192 233.136719h-16v-216h16zm432 24h-64v-62.496094c-.023438-18.496094-15.007812-33.484375-33.503906-33.503906h-84.542969l-2.402344 2.65625c-12.082031 13.574219-29.390625 21.339844-47.566406 21.339844s-35.484375-7.765625-47.570313-21.339844l-2.398437-2.65625h-134.015625v-80h136v-24c0-4.417969 3.582031-8 8-8h88c4.417969 0 8 3.582031 8 8v24h96c44.164062.046875 79.953125 35.835938 80 80zm0 0"/><path d="m64 216.78125h104v16h-104zm0 0"/><path d="m296 216.78125h64v16h-64zm0 0"/></svg>