<svg height="480pt" viewBox="0 -4 480 480" width="480pt" xmlns="http://www.w3.org/2000/svg"><path d="m248 74c-.027344-23.183594-18.816406-41.972656-42-42h-124c-23.183594.027344-41.972656 18.816406-42 42v124c.0625 22.367188 17.65625 40.753906 40 41.800781v.199219h126c23.183594-.027344 41.972656-18.816406 42-42zm-166-26h124c14.351562.019531 25.980469 11.648438 26 26v62h-16v-80h-144v80h-16v-62c.019531-14.351562 11.648438-25.980469 26-26zm118 64h-16v-40h16zm-32 0h-16v-40h16zm-32 0h-16v-40h16zm-32 0h-16v-40h16zm-16 16h16v8h-16zm32 0h16v8h-16zm32 0h16v8h-16zm32 0h16v8h-16zm-88 96v-16h80v16zm24-32v-16h80v16zm86 32h-14v-16h24v-48h-112v32h-24v31.800781c-13.507812-1.019531-23.960938-12.253906-24-25.800781v-46h176v46c-.019531 14.351562-11.648438 25.980469-26 26zm0 0"/><path d="m406 232h-124c-23.183594.027344-41.972656 18.816406-42 42v124c.054688 19.296875 13.253906 36.074219 32 40.664062v1.335938h144v-1.335938c18.746094-4.589843 31.945312-21.367187 32-40.664062v-124c-.027344-23.183594-18.816406-41.972656-42-42zm-86 160h16v8h-16zm32 0h16v8h-16zm32 0h16v8h-16zm16-16h-16v-80h16zm-32 0h-16v-80h16zm-32 0h-16v-80h16zm-32 0h-16v-80h16zm-16 16h16v8h-16zm0 32v-8h16v8zm32 0v-8h16v8zm32 0v-8h16v8zm32 0v-8h16v8zm48-26c-.007812 10.496094-6.316406 19.957031-16 24v-142h-144v141.984375c-9.683594-4.042969-15.992188-13.507813-16-24v-123.984375c.019531-14.351562 11.648438-25.980469 26-26h124c14.351562.019531 25.980469 11.648438 26 26zm0 0"/><path d="m421 200h-33.519531l20.289062-20.289062c3.121094-3.121094 3.121094-8.1875 0-11.3125l-96.175781-96.167969c-3.175781-3-8.140625-3-11.3125 0l-20.28125 20.289062v-33.519531c-.039062-32.566406-26.433594-58.9609375-59-59h-154c-32.566406.0390625-58.960938 26.433594-59 59v154c.039062 32.566406 26.433594 58.960938 59 59h103.246094c20.84375.023438 37.730468 16.910156 37.753906 37.753906v103.246094c.011719 3.691406.367188 7.375 1.0625 11h-33.0625v-120h-160v120h-16v48h264v-.152344c1 .046875 1.984375.152344 3 .152344h154c32.566406-.039062 58.960938-26.433594 59-59v-154c-.039062-32.566406-26.433594-58.960938-59-59zm-81.121094-31.601562 22.632813-22.621094 11.3125 11.3125-22.625 22.628906zm28.289063 28.289062-5.65625-5.65625 22.632812-22.632812 5.65625 5.65625zm-62.230469-107.488281 45.261719 45.265625-22.632813 22.625-45.253906-45.257813zm42.917969 110.800781h-31.101563c-20.84375-.023438-37.730468-16.910156-37.753906-37.753906v-31.101563zm-188.855469 200h-32v-8h32zm-48 0h-32v-8h32zm-48 0h-32v-8h32zm16 16h32v8h-32zm48 0h32v8h-32zm32-96v56h-32v-56zm-48 0v56h-32v-56zm-48 0v56h-32v-56zm-32 96h32v8h-32zm-16 40v-16h198.601562c3.101563 5.984375 7.203126 11.394531 12.125 16zm448-43c-.027344 23.738281-19.261719 42.972656-43 43h-154c-23.738281-.027344-42.972656-19.261719-43-43v-103.246094c-.03125-29.675781-24.078125-53.722656-53.753906-53.753906h-103.246094c-23.738281-.027344-42.972656-19.261719-43-43v-154c.027344-23.738281 19.261719-42.972656 43-43h154c23.738281.027344 42.972656 19.261719 43 43v103.246094c.03125 29.675781 24.078125 53.722656 53.753906 53.753906h103.246094c23.738281.027344 42.972656 19.261719 43 43zm0 0"/></svg>