<svg height="480pt" viewBox="-120 0 480 480" width="480pt" xmlns="http://www.w3.org/2000/svg"><path d="m0 480h240v-480h-240zm48-16v-72h16v72zm32 0v-128h16v128zm32 0v-128h16v128zm32 0v-72h16v72zm32 0v-72h16v72zm48 0h-16v-88h-64v-56h-80v56h-32v88h-16v-160h208zm-80-176h-88v-16h88zm-72-32v-16h88v16zm48-32h-88v-16h88zm-64 16v16h-16v32h-24v-48zm152 48v-72h16v72zm16-88h-32v88h-32v-16h16v-48h-40v-32h-120v-56h208zm-32-80h-16v-72h16zm-32 0h-16v-72h16zm-32 0h-16v-72h16zm-32 0h-16v-72h16zm-32 0h-16v-72h16zm160-104v104h-16v-88h-176v88h-16v-104zm0 0"/></svg>