<svg height="483pt" viewBox="0 -41 483.504 483" width="483pt" xmlns="http://www.w3.org/2000/svg"><path d="m473.710938 158.671875 7.90625-40.839844.144531-1.5625c0-15.460937-12.539063-28-28-28h-4v-41.476562c0-25.65625-25.1875-46.523438-56.152344-46.523438h-103.699219c-18.738281-.480469-36.601562 7.945313-48.148437 22.714844-11.550781-14.769531-29.414063-23.195313-48.152344-22.714844h-103.699219c-30.964844 0-56.148437 20.867188-56.148437 46.523438v41.476562h-4c-15.464844 0-28 12.539063-28 28l8.046875 42.402344c10.480468 53.886719 10.308594 109.304687-.503906 163.128906l-9.304688 46.46875h12.800781l16 32h25.902344l17.097656-34.183593c6.09375-3.160157 9.929688-9.445313 9.960938-16.308594v-5.914063c1.316406.269531 2.65625.40625 4 .40625h126.125c5.414062.003907 10.703125-1.601562 15.203125-4.605469l.871094-.585937c8.34375-5.582031 19.230468-5.582031 27.574218 0l.890625.59375c4.5 3.003906 9.789063 4.601563 15.199219 4.597656h126.136719c1.34375 0 2.683593-.136719 4-.40625v6.398438c.019531 6.855469 3.9375 13.101562 10.101562 16.097656l16.953125 33.910156h25.886719l16-32h12.800781l-9.304687-46.511719c-10.804688-53.808593-10.96875-109.210937-.488281-163.085937zm-19.949219-54.402344c6.371093-.007812 11.640625 4.964844 12 11.328125l-7.746094 40c-10.875 55.929688-10.691406 113.449219.542969 169.304688l5.441406 27.367187h-44.238281c-1.105469 0-2-.894531-2-2v-234c0-6.625 5.371093-12 12-12zm-363.851563 72h132.144532c7.109374.75 12.3125 7.046875 11.707031 14.171875v11.660156c.605469 7.125-4.597657 13.421876-11.707031 14.167969h-140.292969v-40zm152-16.101562c1.460938 1.734375 3.066406 3.339843 4.800782 4.800781-1.808594 1.230469-3.46875 2.667969-4.949219 4.277344-1.421875-1.554688-3.015625-2.949219-4.746094-4.152344 1.769531-1.5 3.40625-3.148438 4.894531-4.925781zm159.851563 16.101562v40h-140.296875c-7.109375-.746093-12.308594-7.042969-11.703125-14.167969v-11.660156c-.605469-7.125 4.59375-13.421875 11.703125-14.171875zm-320 56h320v56.410157c-1.316407-.269532-2.65625-.40625-4-.410157h-312c-1.34375.003907-2.683594.140625-4 .410157zm208.148437-216h103.699219c22.144531 0 40.152344 13.691407 40.152344 30.523438v41.476562h-4c-15.464844 0-28 12.539063-28 28v44h-4.921875v-.09375c-1.0625.0625-2.136719.09375-3.199219.09375h-114.847656c-16 0-29.03125-9.703125-29.03125-21.597656v-91.878906c0-16.832031 18.007812-30.523438 40.148437-30.523438zm-240.148437 30.523438c0-16.832031 18.007812-30.523438 40.148437-30.523438h103.699219c22.144531 0 40.152344 13.691407 40.152344 30.523438v92.34375c0 11.65625-12.753907 21.132812-28.417969 21.132812h-115.433594c-1.085937 0-2.15625 0-3.199218-.09375v.09375h-4.949219v-44c0-15.460937-12.539063-28-28-28h-4zm-20 57.476562h24c6.625 0 12 5.375 12 12v233.507813c0 1.375-1.121094 2.492187-2.496094 2.492187h-43.746094l5.441407-27.367187c11.238281-55.859375 11.429687-113.378906.558593-169.3125l-7.742187-40c.359375-6.351563 5.617187-11.320313 11.984375-11.320313zm8.941406 280-8-16h22.113281l-8 16zm359.058594-56h-126.128907c-2.246093.003907-4.445312-.664062-6.3125-1.910156l-.894531-.59375c-13.722656-9.167969-31.617187-9.167969-45.335937 0l-.882813.585937c-1.871093 1.246094-4.070312 1.914063-6.320312 1.910157h-126.125c-2.210938 0-4-1.789063-4-4v-16c0-2.207031 1.789062-4 4-4h312c2.207031 0 4 1.792969 4 4v16c0 1.0625-.421875 2.082031-1.171875 2.835937-.75.75-1.769532 1.171875-2.828125 1.171875zm47.054687 56h-6.113281l-8-16h22.113281zm0 0"/></svg>