<svg height="480pt" viewBox="-31 0 479 480" width="480pt" xmlns="http://www.w3.org/2000/svg"><path d="m120.5 480c21.144531-.011719 41.6875-7.046875 58.398438-20 4.878906 12.0625 16.589843 19.960938 29.601562 19.960938s24.722656-7.898438 29.601562-19.960938c27.789063 21.472656 65.101563 26.007812 97.230469 11.824219 32.125-14.1875 53.90625-44.820313 56.761719-79.824219h24.40625v-16h-8v-64h-16v-8h-16v8h-16v64h-8v16h23.59375c-2.875 29.027344-21.34375 54.175781-48.175781 65.609375-26.835938 11.429687-57.769531 7.324219-80.691407-10.714844 27.523438-13.511719 46.03125-40.367187 48.867188-70.894531h24.40625v-16h-8v-64h-16v-8h-16v8h-16v64h-8v16h23.527344c-3 26.472656-20.351563 49.132812-45.128906 58.9375-11.894532-14.308594-18.40625-32.332031-18.398438-50.9375v-208.800781c15.699219-3.234375 27.964844-15.5 31.199219-31.199219h24.800781c4.417969 0 8-3.582031 8-8s-3.582031-8-8-8h-24.800781c-3.234375-15.699219-15.5-27.964844-31.199219-31.199219v-32.800781h8c13.253906 0 24-10.746094 24-24s-10.746094-24-24-24h-8v-16h-16v16h-8c-13.253906 0-24 10.746094-24 24s10.746094 24 24 24h8v32.800781c-15.699219 3.234375-27.964844 15.5-31.199219 31.199219h-24.800781c-4.417969 0-8 3.582031-8 8s3.582031 8 8 8h24.800781c3.234375 15.699219 15.5 27.964844 31.199219 31.199219v208.800781c.007812 18.605469-6.503906 36.628906-18.398438 50.9375-24.777343-9.804688-42.128906-32.464844-45.128906-58.9375h23.527344v-16h-8v-64h-16v-8h-16v8h-16v64h-8v16h24.40625c2.835938 30.527344 21.34375 57.382812 48.867188 70.894531-22.921876 18.039063-53.855469 22.144531-80.691407 10.714844-26.832031-11.433594-45.300781-36.582031-48.175781-65.609375h23.59375v-16h-8v-64h-16v-8h-16v8h-16v64h-8v16h24.40625c4.191406 49.699219 45.71875 87.925781 95.59375 88zm256-152h16v48h-16zm-96-16h16v48h-16zm-96-272c0-4.417969 3.582031-8 8-8h32c4.417969 0 8 3.582031 8 8s-3.582031 8-8 8h-32c-4.417969 0-8-3.582031-8-8zm32 118.527344v-14.527344h14.527344c-2.417969 6.777344-7.75 12.109375-14.527344 14.527344zm14.527344-30.527344h-14.527344v-14.527344c6.777344 2.417969 12.109375 7.75 14.527344 14.527344zm-30.527344-14.527344v14.527344h-14.527344c2.417969-6.777344 7.75-12.109375 14.527344-14.527344zm-14.527344 30.527344h14.527344v14.527344c-6.777344-2.417969-12.109375-7.75-14.527344-14.527344zm-65.472656 168h16v48h-16zm88 152c-6.222656-.019531-11.871094-3.644531-14.480469-9.296875 9.578125 1.730469 19.382813 1.730469 28.960938 0-2.609375 5.652344-8.257813 9.277344-14.480469 9.296875zm0-41.742188c2.628906 5.988282 5.859375 11.691407 9.648438 17.023438-6.398438.957031-12.898438.957031-19.296876 0 3.789063-5.332031 7.019532-11.035156 9.648438-17.023438zm-184-94.257812h16v48h-16zm0 0"/><path d="m234.839844 173.65625 11.3125-11.316406 16 16-11.3125 11.3125zm0 0"/><path d="m266.847656 205.65625 11.3125-11.316406 16 16-11.316406 11.3125zm0 0"/><path d="m298.847656 237.65625 11.3125-11.316406 15.996094 16-11.3125 11.3125zm0 0"/><path d="m330.84375 269.65625 11.316406-11.316406 15.996094 16-11.3125 11.3125zm0 0"/><path d="m154.847656 178.339844 15.996094-16 11.316406 11.316406-16 15.996094zm0 0"/><path d="m122.847656 210.339844 15.996094-16 11.316406 11.316406-16 15.996094zm0 0"/><path d="m90.847656 242.34375 15.996094-15.996094 11.316406 11.3125-16 16zm0 0"/><path d="m58.847656 274.34375 15.996094-15.996094 11.316406 11.3125-16 15.996094zm0 0"/></svg>