<svg height="480pt" viewBox="0 -8 480.96297 480" width="480pt" xmlns="http://www.w3.org/2000/svg"><path d="m210.058594 112.042969-205.09375 161.582031c-4.34375 3.363281-6.054688 9.117188-4.261719 14.304688s6.699219 8.65625 12.1875 8.617187h36.074219v160c0 4.417969 3.578125 8 8 8h304c4.417968 0 8-3.582031 8-8v-32h24c4.417968 0 8-3.582031 8-8v-120h72v-16h-8.441406c-.679688-2.738281-2.25-5.175781-4.464844-6.921875l-169.992188-133.878906 18.808594-14.824219c7.351562-5.820313 17.738281-5.820313 25.089844 0l134.476562 105.945313 9.898438-12.578126-134.472656-105.96875c-4.175782-3.25-9.015626-5.542968-14.175782-6.71875 1.488282-9.457031 5.890625-18.21875 12.589844-25.054687h90.683594c0 4.417969 3.578125 8 8 8h32c4.417968 0 8-3.582031 8-8v-48c0-4.417969-3.582032-8-8-8h-32c-4.421875 0-8 3.582031-8 8h-71.417969c-1.753906-7.453125-5.535156-14.277344-10.929687-19.710937-16.386719-16.351563-42.917969-16.351563-59.308594 0l-16 16 3.710937 3.710937h-5.886719c-3.527343-14.742187-14.757812-26.421875-29.351562-30.511719-14.597656-4.09375-30.261719.039063-40.9375 10.800782l-16 16 3.71875 3.710937h-141.597656c0-4.417969-3.582032-8-8-8h-32c-4.421875 0-8 3.582031-8 8v48c0 4.417969 3.578125 8 8 8h32c4.417968 0 8-3.582031 8-8h184.726562c-4.589844 7.480469-7.53125 15.851563-8.625 24.558594-5.46875 1.125-10.605468 3.5-15.007812 6.9375zm9.90625 12.566406c7.347656-5.820313 17.734375-5.820313 25.085937 0l19.160157 15.136719-148.304688 116.800781h-42.941406c-13.257813 0-24 10.746094-24 24h-26.945313zm133 283.9375h-256v-128c-.011719-1.511719-.164063-3.019531-.457032-4.503906-.089843-.480469-.25-.9375-.367187-1.402344-.175781-.703125-.3125-1.421875-.546875-2.09375h257.371094zm-280-136c4.417968 0 8 3.582031 8 8h-16c0-4.417969 3.578125-8 8-8zm280 176h-288v-152h16v120c0 4.417969 3.578125 8 8 8h264zm32-40h-16v-136h8c4.417968 0 8 3.582031 8 8h-.464844v16h.464844zm58.023437-128h-42.023437c0-13.253906-10.746094-24-24-24h-235.203125l135.378906-106.648437zm-107.394531-216h-67.535156c3.019531-4.875 4.996094-10.324219 5.800781-16h72.230469c-1.074219 4.644531-3.421875 8.902344-6.78125 12.289063zm129.371094-24v32h-16v-32zm-32 24h-76.441406c3.007812-4.878906 4.976562-10.328125 5.785156-16h70.65625zm-130.347656-40.402344c6.121093-6.128906 14.898437-8.800781 23.394531-7.113281 8.496093 1.6875 15.585937 7.511719 18.894531 15.515625h-50.6875zm-88.460938 0c6.132812-6.109375 14.90625-8.761719 23.402344-7.078125 8.492187 1.6875 15.589844 7.488282 18.925781 15.480469h-50.722656zm-197.191406 48.402344v-32h16v32zm32-24h208.695312c-1.089844 4.648437-3.449218 8.902344-6.816406 12.289063l-3.710938 3.710937h-198.167968zm273.183594 32c-4.667969 7.597656-7.628907 16.121094-8.679688 24.976563-5.28125 1.148437-10.230469 3.472656-14.488281 6.796874l-21.839844 17.210938-22.195313-17.488281c-4.042968-3.152344-8.710937-5.402344-13.695312-6.609375 1.515625-9.394532 5.90625-18.089844 12.570312-24.886719zm0 0"/><path d="m473.425781 280.828125h7.539063v16h-7.539063zm0 0"/></svg>