<svg height="480pt" viewBox="-40 0 480 480" width="480pt" xmlns="http://www.w3.org/2000/svg"><path d="m45.65625 477.65625c8.722656-8.773438 20.59375-13.691406 32.96875-13.65625h242.75c12.375-.035156 24.246094 4.882812 32.96875 13.65625l2.34375 2.34375h43.3125v-480h-400v480h43.3125zm162.34375-261.65625h176v208h-176zm176-16h-176v-184h176zm-368-184h176v408h-176zm0 448v-24h368v24h-20.800781c-11.464844-10.34375-26.367188-16.046875-41.808594-16h-242.765625c-15.445312-.050781-30.355469 5.652344-41.824219 16zm0 0"/><path d="m224 408h144v-80h-144zm16-64h112v48h-112zm0 0"/><path d="m280 360h32v16h-32zm0 0"/><path d="m224 312h144v-80h-144zm16-64h112v48h-112zm0 0"/><path d="m280 264h32v16h-32zm0 0"/><path d="m224 48h16v120h-16zm0 0"/><path d="m160 80h16v296h-16zm0 0"/><path d="m88 32c-30.914062.035156-55.964844 25.085938-56 56v264c0 30.929688 25.070312 56 56 56s56-25.070312 56-56v-264c-.035156-30.914062-25.085938-55.964844-56-56zm40 320c0 22.089844-17.910156 40-40 40s-40-17.910156-40-40v-264c0-22.089844 17.910156-40 40-40s40 17.910156 40 40zm0 0"/></svg>