<svg height="480pt" viewBox="-120 0 480 480" width="480pt" xmlns="http://www.w3.org/2000/svg"><path d="m105.601562 87.320312-56.882812-5.71875c-8.257812-.828124-16.300781 2.960938-20.921875 9.859376-4.617187 6.898437-5.058594 15.78125-1.144531 23.101562 3.914062 7.324219 11.542968 11.890625 19.84375 11.886719.734375 0 1.480468 0 2.222656-.113281l56.867188-5.6875c8.164062-.789063 14.398437-7.644532 14.414062-15.847657v-1.519531c.042969-8.242188-6.199219-15.160156-14.398438-15.960938zm-58.464843 23.128907c-2.378907.234375-4.695313-.855469-6.023438-2.839844-1.332031-1.984375-1.464843-4.539063-.34375-6.648437 1.121094-2.109376 3.3125-3.433594 5.703125-3.441407.21875-.011719.441406-.011719.664063 0l56.863281 5.71875v1.523438zm56.863281-5.648438.800781 7.960938zm0 0"/><path d="m46.496094 208c.734375 0 1.480468 0 2.222656-.113281l56.875-5.6875c8.175781-.820313 14.398438-7.703125 14.398438-15.917969v-1.480469c.042968-8.246093-6.1875-15.171875-14.390626-16l-56.875-5.679687c-8.179687-.679688-16.078124 3.15625-20.605468 10-4.527344 6.847656-4.964844 15.617187-1.140625 22.878906 3.828125 7.265625 11.308593 11.863281 19.515625 12zm-4.359375-27.289062c1.183593-1.078126 2.726562-1.675782 4.328125-1.671876.21875-.011718.441406-.011718.664062 0l56.871094 5.761719v1.519531l-56.871094 5.679688c-2.785156.28125-5.4375-1.261719-6.574218-3.820312-1.132813-2.558594-.496094-5.558594 1.582031-7.4375zm0 0"/><path d="m64 32h112v16h-112zm0 0"/><path d="m224 480v-36.449219c9.867188-5.671875 15.964844-16.171875 16-27.550781v-384c0-17.671875-14.328125-32-32-32h-176c-17.671875 0-32 14.328125-32 32v384c.0351562 11.378906 6.132812 21.878906 16 27.550781v36.449219zm-16-16h-176v-16h176zm-192-432c0-8.835938 7.164062-16 16-16h176c8.835938 0 16 7.164062 16 16v104h-208zm208 120v264c0 8.835938-7.164062 16-16 16h-176c-8.835938 0-16-7.164062-16-16v-264zm0 0"/></svg>