<svg height="480pt" viewBox="0 -4 480 480" width="480pt" xmlns="http://www.w3.org/2000/svg"><path d="m472 232.019531h-16v-56c0-13.253906-10.746094-24-24-24h-16v-88.140625c-.082031-2.320312.921875-4.542968 2.71875-6.011718 10.273438-7.382813 15.222656-20.136719 12.613281-32.515626-2.609375-12.378906-12.28125-22.054687-24.660156-24.664062s-25.132813 2.332031-32.519531 12.605469c-1.464844 1.800781-3.6875 2.808593-6.007813 2.726562h-280.289062c-2.316407.082031-4.539063-.921875-6.007813-2.71875-7.386718-10.257812-20.132812-15.1875-32.5-12.578125-12.371094 2.613282-22.035156 12.273438-24.644531 24.644532-2.613281 12.367187 2.320313 25.113281 12.578125 32.5 1.796875 1.46875 2.800781 3.691406 2.71875 6.011718v88.140625h-16c-13.253906 0-24 10.746094-24 24v288c0 4.417969 3.582031 8 8 8h64c4.417969 0 8-3.582031 8-8v-24h296v24c0 4.417969 3.582031 8 8 8h64c4.417969 0 8-3.582031 8-8v-184h16c4.417969 0 8-3.582031 8-8v-32c0-4.417969-3.582031-8-8-8zm-425.367188-187.132812c-5.121093-3.6875-7.585937-10.046875-6.28125-16.21875 1.300782-6.171875 6.125-10.996094 12.296876-12.296875 6.171874-1.300782 12.53125 1.160156 16.214843 6.28125 4.464844 5.984375 11.527344 9.46875 18.992188 9.367187h280.289062c7.46875.101563 14.53125-3.382812 18.992188-9.375 3.660156-5.132812 10.015625-7.605469 16.183593-6.296875 6.183594 1.289063 11.023438 6.113282 12.335938 12.292969 1.3125 6.183594-1.152344 12.554687-6.28125 16.246094-5.988281 4.460937-9.476562 11.523437-9.375 18.992187v88.140625h-16v-80c0-13.253906-10.746094-24-24-24h-264c-13.253906 0-24 10.746094-24 24v80h-16v-88.140625c.101562-7.46875-3.382812-14.53125-9.367188-18.992187zm321.367188 107.132812h-280v-80c0-4.417969 3.582031-8 8-8h264c4.417969 0 8 3.582031 8 8zm-352 24c0-4.417969 3.582031-8 8-8h408c4.417969 0 8 3.582031 8 8v248h-424zm48 280h-48v-16h48zm376 0h-48v-16h48zm24-192h-8v-16h8zm0 0"/><path d="m106.339844 130.363281 55.996094-55.996093 11.316406 11.3125-56 55.996093zm0 0"/><path d="m186.339844 130.363281 56-55.996093 11.3125 11.3125-55.996094 55.996093zm0 0"/><path d="m274.34375 130.367188 55.996094-55.996094 11.3125 11.316406-55.996094 55.996094zm0 0"/><path d="m152 200.019531h168v16h-168zm0 0"/><path d="m32 392.019531h80v16h-80zm0 0"/><path d="m32 360.019531h56v16h-56zm0 0"/></svg>