<svg height="480pt" viewBox="0 -29 480 480" width="480pt" xmlns="http://www.w3.org/2000/svg"><path d="m420.367188 173.65625h-36.367188v-16h-384v16.398438c0 52.714843 50.664062 95.601562 112.9375 95.601562h158.125c56 0 102.457031-34.703125 111.296875-80h38.007813v16h59.632812v-48h-59.632812zm-52.367188.398438c0 43.890624-43.488281 79.601562-96.9375 79.601562h-158.125c-53.449219 0-96.9375-35.710938-96.9375-79.601562v-.398438h352zm68.367188-.398438h27.632812v16h-27.632812zm0 0"/><path d="m66.34375 120 11.3125 11.3125 26.664062-26.664062c10.480469-10.492188 10.480469-27.492188 0-37.984376l-13.328124-13.328124c-4.230469-4.246094-4.230469-11.113282 0-15.359376l26.664062-26.664062-11.3125-11.3125-26.664062 26.664062c-10.480469 10.492188-10.480469 27.492188 0 37.984376l13.328124 13.328124c4.230469 4.246094 4.230469 11.113282 0 15.359376zm0 0"/><path d="m170.34375 120 11.3125 11.3125 26.664062-26.664062c10.480469-10.492188 10.480469-27.492188 0-37.984376l-13.328124-13.328124c-4.230469-4.246094-4.230469-11.113282 0-15.359376l26.664062-26.664062-11.3125-11.3125-26.664062 26.664062c-10.480469 10.492188-10.480469 27.492188 0 37.984376l13.328124 13.328124c4.230469 4.246094 4.230469 11.113282 0 15.359376zm0 0"/><path d="m274.34375 120 11.3125 11.3125 26.664062-26.664062c10.480469-10.492188 10.480469-27.492188 0-37.984376l-13.328124-13.328124c-4.230469-4.246094-4.230469-11.113282 0-15.359376l26.664062-26.664062-11.3125-11.3125-26.664062 26.664062c-10.480469 10.492188-10.480469 27.492188 0 37.984376l13.328124 13.328124c4.230469 4.246094 4.230469 11.113282 0 15.359376zm0 0"/><path d="m456 341.65625v-24h-112v-32h-48v16h32v16h-120v-32h-16v32h-120v-16h32v-16h-48v32h-56v104h456v-32c13.253906 0 24-10.746094 24-24s-10.746094-24-24-24zm-16 64h-424v-72h424zm16-32v-16c4.417969 0 8 3.582031 8 8s-3.582031 8-8 8zm0 0"/></svg>