<svg height="480pt" viewBox="-96 0 480 480.1539" width="480pt" xmlns="http://www.w3.org/2000/svg"><path d="m168.078125 424.152344h16v24h-16zm0 0"/><path d="m136.078125 424.152344h16v24h-16zm0 0"/><path d="m104.078125 424.152344h16v24h-16zm0 0"/><path d="m288.078125 144.152344c.082031-76.425782-59.558594-139.605469-135.867187-143.921875-76.304688-4.320313-142.691407 51.726562-151.230469 127.675781-8.542969 75.949219 43.738281 145.339844 119.097656 158.078125v106.167969h-8.210937c-12.226563-.023438-23.960938 4.839844-32.589844 13.503906l-41.511719 41.523438c-5.527344 5.515624-7.183594 13.820312-4.203125 21.035156 2.984375 7.21875 10.015625 11.929687 17.828125 11.9375h185.375c7.808594 0 14.851563-4.703125 17.84375-11.921875 2.988281-7.214844 1.335937-15.519531-4.1875-21.042969l-41.546875-41.53125c-8.625-8.664062-20.359375-13.527344-32.589844-13.503906h-8.207031v-106.167969c69.203125-11.742187 119.878906-71.636719 120-141.832031zm-272 0c0-70.691406 57.304687-128 128-128 70.691406 0 128 57.308594 128 128 0 70.695312-57.308594 128-128 128-70.660156-.082032-127.917969-57.339844-128-128zm160.207031 264c7.988282-.027344 15.65625 3.140625 21.296875 8.800781l41.527344 41.527344c.941406.949219 1.222656 2.371093.710937 3.605469-.511718 1.238281-1.71875 2.042968-3.054687 2.042968h-185.375c-1.34375.003906-2.550781-.804687-3.066406-2.042968-.511719-1.238282-.226563-2.664063.71875-3.613282l41.53125-41.519531c5.636719-5.660156 13.304687-8.828125 21.292969-8.800781zm-24.207031-120v104h-16v-104zm0 0"/><path d="m163.277344 255.496094c10.421875-5.207032 18.277344-14.429688 21.761718-25.546875 3.488282-11.117188 2.304688-23.175781-3.273437-33.402344l-12-21.992187c2.386719-1.992188 4.535156-4.25 6.398437-6.738282l20.320313 11.089844c10.230469 5.582031 22.289063 6.761719 33.40625 3.273438 11.117187-3.488282 20.339844-11.347657 25.546875-21.769532 6-12.097656 6-26.304687 0-38.398437-5.210938-10.421875-14.4375-18.277344-25.554688-21.765625-11.121093-3.484375-23.179687-2.296875-33.40625 3.285156l-23.65625 12.902344c-.964843-.945313-1.980468-1.839844-3.039062-2.679688l12-21.992187c5.578125-10.230469 6.757812-22.289063 3.269531-33.40625-3.492187-11.117188-11.351562-20.339844-21.773437-25.546875-12.09375-6.015625-26.308594-6.015625-38.402344 0-10.417969 5.210937-18.273438 14.433594-21.761719 25.550781-3.484375 11.117187-2.304687 23.175781 3.277344 33.402344l12 21.992187c-1.0625.839844-2.074219 1.734375-3.042969 2.679688l-23.65625-12.902344c-10.226562-5.582031-22.285156-6.769531-33.402344-3.285156-11.121093 3.488281-20.34375 11.34375-25.554687 21.765625-6.003906 12.09375-6.003906 26.300781 0 38.398437 5.171875 10.449219 14.40625 18.316406 25.542969 21.769532 11.117187 3.519531 23.191406 2.335937 33.414062-3.273438l20.3125-11.082031c1.867188 2.484375 4.015625 4.742187 6.402344 6.730469l-12 21.992187c-8.953125 16.464844-6.191406 36.835937 6.820312 50.324219 13.015626 13.488281 33.273438 16.980468 50.050782 8.625zm-43.199219-111.34375c0-13.253906 10.742187-24 24-24 13.253906 0 24 10.746094 24 24 0 13.257812-10.746094 24-24 24-13.257813 0-24-10.742188-24-24zm84.046875-26.574219c6.417969-3.5 13.980469-4.242187 20.953125-2.054687 6.972656 2.183593 12.757813 7.109374 16.03125 13.644531 3.777344 7.585937 3.777344 16.503906 0 24.089843-3.265625 6.539063-9.050781 11.472657-16.027344 13.660157-6.976562 2.1875-14.539062 1.441406-20.957031-2.058594l-21.199219-11.570313c1.941407-7.738281 1.382813-15.894531-1.601562-23.296874zm-83.6875-33.472656c-6.179688-11.328125-3.453125-25.445313 6.496094-33.660157 9.953125-8.214843 24.332031-8.214843 34.285156 0 9.953125 8.214844 12.675781 22.332032 6.5 33.660157l-12 21.984375c-7.550781-2.582032-15.746094-2.582032-23.296875 0zm-36.410156 80.753906c-11.328125 6.175781-25.445313 3.453125-33.660156-6.5-8.214844-9.953125-8.214844-24.332031 0-34.28125 8.214843-9.953125 22.332031-12.679687 33.660156-6.5l22.761718 12.414063c-2.984374 7.40625-3.542968 15.5625-1.601562 23.304687zm48 76.328125c-6.539063-3.269531-11.46875-9.054688-13.65625-16.027344-2.1875-6.976562-1.445313-14.542968 2.058594-20.957031l12-21.984375c7.550781 2.582031 15.746093 2.582031 23.296874 0l12 21.984375c5.636719 10.328125 3.910157 23.125-4.261718 31.59375-8.167969 8.46875-20.894532 10.652344-31.421875 5.390625zm0 0"/></svg>