<svg height="480pt" viewBox="0 0 480 480" width="480pt" xmlns="http://www.w3.org/2000/svg"><path d="m32 96h16v128h-16zm0 0"/><path d="m323.425781 16h-166.851562c-5.015625-9.789062-15.078125-15.9609375-26.078125-16h-130.496094v16h130.496094c7.453125.007812 13.496094 6.050781 13.503906 13.503906v426.496094c0 4.417969-3.582031 8-8 8s-8-3.582031-8-8v-64h-16v41.472656c-2.5625-.949218-5.269531-1.445312-8-1.472656h-16c-2.730469.027344-5.4375.523438-8 1.472656v-161.472656h-16v184c0 4.417969-3.582031 8-8 8h-16c-4.417969 0-8-3.582031-8-8v-112h-16v89.472656c-2.5625-.949218-5.269531-1.445312-8-1.472656h-8v16h8c4.417969 0 8 3.582031 8 8 0 13.253906 10.746094 24 24 24h16c13.253906 0 24-10.746094 24-24 0-4.417969 3.582031-8 8-8h16c4.417969 0 8 3.582031 8 8 0 13.253906 10.746094 24 24 24s24-10.746094 24-24v-24h160v24c0 13.253906 10.746094 24 24 24s24-10.746094 24-24c0-4.417969 3.582031-8 8-8h16c4.417969 0 8 3.582031 8 8 0 13.253906 10.746094 24 24 24h16c13.253906 0 24-10.746094 24-24 0-4.417969 3.582031-8 8-8h8v-16h-8c-2.730469.027344-5.4375.523438-8 1.472656v-89.472656h-16v112c0 4.417969-3.582031 8-8 8h-16c-4.417969 0-8-3.582031-8-8v-184h-16v161.472656c-2.5625-.949218-5.269531-1.445312-8-1.472656h-16c-2.730469.027344-5.4375.523438-8 1.472656v-57.472656h-16v80c0 4.417969-3.582031 8-8 8s-8-3.582031-8-8v-426.496094c.003906-7.453125 6.042969-13.496094 13.496094-13.503906h130.503906v-16h-130.503906c-10.996094.0429688-21.054688 6.214844-26.070313 16zm-163.425781 48h72v168h-72zm0 184h72v168h-72zm88 168v-168h72v168zm72-184h-72v-168h72zm-160-184v-16h160v16zm0 0"/><path d="m432 96h16v128h-16zm0 0"/></svg>