<svg height="481pt" viewBox="-24 0 481 481.06736" width="481pt" xmlns="http://www.w3.org/2000/svg"><path d="m24.039062 238.957031v234.109375c0 4.417969 3.582032 8 8 8h160c4.417969 0 8-3.582031 8-8v-30.910156c0-4.417969-3.582031-8-8-8v-15.199219c0-13.257812-10.742187-24-24-24-13.253906 0-24 10.742188-24 24v5.453125c-43.128906-17.59375-71.503906-59.332031-72-105.910156v-71.792969c17.550782-5.1875 31.445313-18.644531 37.191407-36.019531 5.742187-17.378906 2.609375-36.464844-8.390625-51.09375l91.199218-91.214844 2.554688 2.550782c-6.152344 19.347656-.996094 40.507812 13.359375 54.859374l40.886719 40.933594c2.722656 2.824219 7.136718 3.136719 10.234375.730469l35.269531 35.269531c18.648438 18.222656 48.488281 18.046875 66.921875-.390625 18.4375-18.433593 18.609375-48.269531.390625-66.921875l-35.214844-35.269531c2.40625-3.097656 2.09375-7.511719-.730468-10.234375l-40.949219-40.925781c-14.351563-14.355469-35.511719-19.511719-54.859375-13.359375l-28.207032-28.210938c-8.601562-8.714844-22.261718-9.882812-32.21875-2.757812-9.960937 7.128906-13.257812 20.4375-7.78125 31.390625l-101.40625 101.242187c-1.410156-.105468-2.816406-.21875-4.25-.21875-24.460937-.023437-46.105468 15.847656-53.433593 39.1875-7.332031 23.339844 1.351562 48.734375 21.433593 62.703125zm136 180c0-4.421875 3.582032-8 8-8 4.417969 0 8 3.578125 8 8v14.023438c-5.394531-.695313-10.742187-1.746094-16-3.144531zm24 30.949219v15.160156h-144v-218.359375c5.1875 1.574219 10.578126 2.382813 16 2.398438v69.457031c1.191407 70.757812 57.296876 128.34375 128 131.367188zm175.601563-280.839844c.023437 8.386719-3.3125 16.433594-9.257813 22.34375-12.503906 11.9375-32.183593 11.9375-44.6875 0l-35.09375-35.09375 44.6875-44.6875 35.09375 35.09375c5.945313 5.914063 9.28125 13.960938 9.257813 22.34375zm-86.191406-108.800781 35.277343 35.28125-54.191406 54.183594-35.292968-35.253907c-14.972657-14.96875-14.972657-39.238281 0-54.210937 14.96875-14.96875 39.238281-14.96875 54.207031 0zm-95.753907-41.597656c3.507813-3.496094 9.183594-3.496094 12.6875 0l24.472657 24.472656c-4.941407 3.449219-9.238281 7.742187-12.6875 12.6875l-24.472657-24.417969c-3.496093-3.503906-3.496093-9.179687 0-12.6875zm-5.65625 29.703125 8.6875 8.695312-91.199218 91.199219c-3.425782-2.585937-7.140625-4.769531-11.070313-6.503906zm-116 104.695312c22.09375 0 40 17.910156 40 40 0 22.09375-17.90625 40-40 40-22.089843 0-40-17.90625-40-40 .027344-22.078125 17.921876-39.972656 40-40zm0 0"/><path d="m56.039062 217.066406c13.257813 0 24-10.746094 24-24s-10.742187-24-24-24c-13.253906 0-24 10.746094-24 24s10.746094 24 24 24zm0-32c4.417969 0 8 3.582032 8 8 0 4.417969-3.582031 8-8 8-4.417968 0-8-3.582031-8-8 0-4.417968 3.582032-8 8-8zm0 0"/><path d="m386.382812 238.730469 11.3125-11.3125 32.003907 32-11.316407 11.3125zm0 0"/><path d="m400.039062 169.066406h32v16h-32zm0 0"/><path d="m328.039062 249.066406h16v32h-16zm0 0"/></svg>