<svg height="480pt" viewBox="0 -68 480 480" width="480pt" xmlns="http://www.w3.org/2000/svg"><path d="m104 96c-4.417969 0-8 3.582031-8 8v32c0 4.417969 3.582031 8 8 8h91.894531c12.957031 17.796875 19.992188 39.21875 20.105469 61.230469v43.058593c-.113281 30.203126-10.777344 59.417969-30.152344 82.589844-1.988281 2.386719-2.414062 5.707032-1.097656 8.515625 1.320312 2.8125 4.144531 4.605469 7.25 4.605469h96c3.105469 0 5.929688-1.792969 7.25-4.605469 1.316406-2.808593.890625-6.128906-1.097656-8.515625-19.375-23.171875-30.039063-52.386718-30.152344-82.589844v-43.058593c.113281-22.011719 7.148438-43.433594 20.105469-61.230469h99.894531c4.417969 0 8-3.582031 8-8v-32c0-4.417969-3.582031-8-8-8h-32v-33.136719c14.085938-3.636719 23.945312-16.316406 24-30.863281v-24c0-4.417969-3.582031-8-8-8h-48c-4.417969 0-8 3.582031-8 8v24c.054688 14.546875 9.914062 27.226562 24 30.863281v33.136719h-184v-33.136719c14.085938-3.636719 23.945312-16.316406 24-30.863281v-24c0-4.417969-3.582031-8-8-8h-48c-4.417969 0-8 3.582031-8 8v24c.054688 14.546875 9.914062 27.226562 24 30.863281v33.136719zm224-64v-16h32v16c0 8.835938-7.164062 16-16 16s-16-7.164062-16-16zm-200 0v-16h32v16c0 8.835938-7.164062 16-16 16s-16-7.164062-16-16zm-16 80h52.6875l16 16h-68.6875zm128 52.6875-52.6875-52.6875h105.375zm32.113281 163.3125h-64.226562c15.65625-23.644531 24.039062-51.355469 24.113281-79.710938v-43.058593c-.011719-10.035157-1.296875-20.027344-3.824219-29.742188l6.167969 6.167969c3.125 3.121094 8.1875 3.121094 11.3125 0l6.167969-6.167969c-2.527344 9.714844-3.8125 19.707031-3.824219 29.742188v43.058593c.074219 28.355469 8.457031 56.066407 24.113281 79.710938zm103.886719-200h-76.6875l16-16h60.6875zm0 0"/><path d="m8 344h32c4.417969 0 8-3.582031 8-8v-96h56c13.253906 0 24 10.746094 24 24v72c0 4.417969 3.582031 8 8 8h32c4.417969 0 8-3.582031 8-8v-70.496094c-.054688-40.574218-32.929688-73.449218-73.503906-73.503906h-54.496094v-152c0-4.417969-3.582031-8-8-8h-32c-4.417969 0-8 3.582031-8 8v296c0 4.417969 3.582031 8 8 8zm8-296h16v152c0 4.417969 3.582031 8 8 8h62.496094c31.738281.054688 57.449218 25.765625 57.503906 57.503906v62.496094h-16v-64c-.027344-22.082031-17.917969-39.972656-40-40h-64c-4.417969 0-8 3.582031-8 8v96h-16zm0 0"/><path d="m472 32h-32c-4.417969 0-8 3.582031-8 8v152h-54.503906c-40.570313.058594-73.441406 32.933594-73.496094 73.503906v70.496094c0 4.417969 3.582031 8 8 8h32c4.417969 0 8-3.582031 8-8v-72c0-13.253906 10.746094-24 24-24h56v96c0 4.417969 3.582031 8 8 8h32c4.417969 0 8-3.582031 8-8v-296c0-4.417969-3.582031-8-8-8zm-8 296h-16v-96c0-4.417969-3.582031-8-8-8h-64c-22.082031.027344-39.972656 17.917969-40 40v64h-16v-62.496094c.054688-31.734375 25.761719-57.445312 57.496094-57.503906h62.503906c4.417969 0 8-3.582031 8-8v-152h16zm0 0"/></svg>