<svg height="486.624pt" viewBox="0 0 486.624 486.624" width="486.624pt" xmlns="http://www.w3.org/2000/svg"><path d="m427.3125 107.3125c0-57.34375-39.480469-104-88-104-24.230469.425781-47.019531 11.597656-62.191406 30.496094l-33.808594-33.808594-12.921875 12.910156c-6.175781-8.261718-16.957031-11.636718-26.742187-8.363281-9.785157 3.269531-16.371094 12.445313-16.335938 22.765625v64c0 4.417969-3.582031 8-8 8s-8-3.582031-8-8v-64c0-13.253906-10.746094-24-24-24s-24 10.746094-24 24v64c0 4.417969-3.582031 8-8 8s-8-3.582031-8-8v-64c0-13.253906-10.746094-24-24-24s-24 10.746094-24 24v80c-.113281 21.210938 5.5625 42.046875 16.414062 60.273438l-75.726562 75.726562 114.039062 114.039062-4.632812 81.054688c-.679688 11.804688 3.507812 23.371094 11.585938 32 7.785156 8.324219 18.699218 13.011719 30.097656 12.925781 11.398437-.085937 22.242187-4.933593 29.902344-13.371093 8.121093-8.902344 12.144531-20.796876 11.085937-32.800782l-.167969-1.960937 51.402344 51.425781 58.695312-58.6875-.601562 10.46875c-.679688 11.804688 3.507812 23.371094 11.585938 32 7.785156 8.324219 18.699218 13.011719 30.097656 12.925781 11.398437-.085937 22.242187-4.933593 29.902344-13.371093 8.121093-8.902344 12.144531-20.796876 11.085937-32.800782l-7.199219-84.105468.105469-.101563 109.640625-109.640625-75.730469-75.726562c10.855469-18.226563 16.53125-39.0625 16.417969-60.273438zm-88-88c39.695312 0 72 39.480469 72 88s-32.304688 88-72 88-72-39.480469-72-88 32.304688-88 72-88zm-264 8c0-4.417969 3.582031-8 8-8s8 3.582031 8 8v64c0 13.253906 10.746094 24 24 24s24-10.746094 24-24v-64c0-4.417969 3.582031-8 8-8s8 3.582031 8 8v64c0 13.253906 10.746094 24 24 24s24-10.746094 24-24v-64c0-4.417969 3.582031-8 8-8s8 3.582031 8 8v80c0 48.519531-32.304688 88-72 88s-72-39.480469-72-88zm-52.6875 216 62.496094-62.496094c9.914062 11.960938 22.871094 21.03125 37.503906 26.253906l-7.359375 128.882813zm146.574219 215.816406c-4.746094 5.011719-11.328125 7.871094-18.230469 7.921875s-13.527344-2.714843-18.34375-7.660156c-5.0625-5.417969-7.679688-12.675781-7.242188-20.078125l13.023438-228h18.25l19.457031 227.199219c.675781 7.535156-1.828125 15.011719-6.914062 20.617187zm74.113281 4.871094-53.542969-53.542969-17.441406-203.503906c36.375-12.769531 62.984375-52.578125 62.984375-99.640625v-76.6875l8-8 24.414062 24.414062c-10.851562 18.222657-16.527343 39.0625-16.414062 60.273438 0 47.199219 26.785156 87.113281 63.3125 99.757812l-11.25 196.867188zm117.886719-4.871094c-4.746094 5.011719-11.328125 7.871094-18.230469 7.921875s-13.527344-2.714843-18.34375-7.660156c-5.0625-5.417969-7.679688-12.675781-7.242188-20.078125l13.023438-228h18.25l19.457031 227.199219c.675781 7.535156-1.828125 15.011719-6.914062 20.617187zm102.800781-215.816406-88.921875 88.917969-10.734375-125.261719c14.496094-5.253906 27.324219-14.28125 37.160156-26.152344zm0 0"/><path d="m339.503906 179.816406c25.214844 0 48-23.128906 54.183594-54.984375l-15.710938-3.039062c-4.71875 24.351562-20.898437 42.023437-38.472656 42.023437-17.574218 0-33.742187-17.671875-38.464844-42.023437l-15.710937 3.039062c6.183594 31.855469 28.96875 54.984375 54.175781 54.984375zm0 0"/></svg>