<svg height="480pt" viewBox="0 0 480 480" width="480pt" xmlns="http://www.w3.org/2000/svg"><path d="m240 0c-132.546875 0-240 107.453125-240 240s107.453125 240 240 240 240-107.453125 240-240c-.148438-132.484375-107.515625-239.851562-240-240zm39.640625 189.921875c-10.863281-21.675781-16.234375-45.6875-15.640625-69.921875v-72c0-2.351562 1.03125-4.582031 2.824219-6.105469 1.441406-1.230469 3.277343-1.902343 5.175781-1.894531.46875 0 .9375.039062 1.398438.121094 3.996093.976562 6.753906 4.625 6.601562 8.734375v91.144531c0 11.046875 8.953125 20 20 20s20-8.953125 20-20v-92c0-2.367188 1.046875-4.613281 2.859375-6.132812 1.816406-1.523438 4.210937-2.160157 6.539063-1.746094 3.996093.976562 6.753906 4.625 6.601562 8.734375v71.144531c.59375 24.234375-4.777344 48.246094-15.640625 69.921875-10.03125 17.234375-14.847656 37.007813-13.863281 56.925781l11.710937 181.71875c.339844 5.175782-1.539062 10.253906-5.164062 13.960938-3.628907 3.707031-8.660157 5.699218-13.84375 5.472656-4.667969-.230469-9.042969-2.351562-12.121094-5.871094-3.675781-4.125-5.550781-9.550781-5.207031-15.066406l11.625-180.199219c.988281-19.921875-3.824219-39.703125-13.855469-56.941406zm-70.550781 41.527344c-.140625-1.921875.523437-3.816407 1.832031-5.230469 1.3125-1.410156 3.152344-2.214844 5.078125-2.21875h24v-119.921875c2.679688 0 5.328125.097656 8 .25v15.671875c-.582031 26.980469 5.492188 53.691406 17.6875 77.769531 8.515625 14.53125 12.632812 31.226563 11.847656 48.054688l-8.175781 126.777343c-16.558594 3.628907-33.644531 4.167969-50.398437 1.597657zm-2.785156 192.34375c.277343 4.183593-1.1875 8.300781-4.046876 11.371093-2.859374 3.066407-6.863281 4.820313-11.058593 4.835938-8.394531 0-15.199219-6.804688-15.199219-15.199219v-384.234375c27.535156 4.015625 47.964844 27.609375 48 55.433594v112h-8c-6.363281 0-12.445312 2.636719-16.789062 7.289062-4.339844 4.652344-6.558594 10.898438-6.121094 17.246094zm-46.304688-73.890625c-35.179688-25.558594-56-66.417969-56-109.902344s20.820312-84.34375 56-109.902344zm136-233.832032c2.71875 1.234376 5.359375 2.640626 8 4.050782v19.878906c0 2.210938-1.789062 4-4 4s-4-1.789062-4-4zm26.464844 129.753907c-.785156-16.828125 3.332031-33.523438 11.847656-48.054688 6.679688-12.492187 11.386719-25.9375 13.953125-39.867187 43.519531 57.144531 34.953125 138.308594-19.539063 185.105468zm-8.417969-217.191407c-.519531.375-1.09375.65625-1.597656 1.078126-5.363281 4.5625-8.453125 11.25-8.449219 18.289062v54.121094c-2.625-1.226563-5.320312-2.242188-8-3.304688v-49.960937c.148438-11.941407-8.273438-22.273438-20-24.535157-6.96875-1.179687-14.101562.773438-19.496094 5.339844-5.398437 4.5625-8.507812 11.273438-8.503906 18.339844v40.320312c-2.824219-.144531-5.601562-.214843-8.457031-.207031-3.671875-32.65625-28.964844-58.695312-61.503907-63.3125 44.628907-12.90625 92.171876-11.5625 136 3.847657zm-298.046875 211.367188c.113281-92.796875 57.355469-175.945312 144-209.175781v80c-44.757812 27.671875-72 76.546875-72 129.167969 0 52.621093 27.242188 101.492187 72 129.167968v55.640625c-.226562 11.546875 5.945312 22.273438 16.039062 27.882813s22.464844 5.183594 32.148438-1.105469c9.6875-6.292969 15.105469-17.417969 14.085938-28.921875l-2.21875-32.152344c16.03125 2.296875 32.332031 1.890625 48.226562-1.199218l-2.402344 36.679687c-.605468 9.824219 2.753906 19.484375 9.320313 26.816406 2.515625 2.738281 5.460937 5.042969 8.722656 6.832031-65.804687 13.15625-134.035156-3.878906-185.929687-46.421874-51.898438-42.542969-81.984376-106.105469-81.992188-173.210938zm314.550781 204.800781c2.703125-5.339843 3.953125-11.296875 3.625-17.273437l-4.191406-65.128906c34.941406-25.617188 57.257813-64.960938 61.3125-108.101563 4.054687-43.136719-10.539063-85.949219-40.097656-117.632813.464843-5.488281.800781-11.039062.800781-16.664062v-71.144531c-.027344-.957031-.113281-1.914063-.257812-2.863281 73.140624 42.058593 116.414062 121.664062 111.9375 205.914062-4.476563 84.25-55.945313 158.824219-133.128907 192.894531zm0 0"/></svg>