<svg height="480pt" viewBox="-76 0 480 480" width="480pt" xmlns="http://www.w3.org/2000/svg"><path d="m175.839844 128c-1.6875-53.320312-33.214844-96-71.839844-96s-70.152344 42.679688-71.839844 96h-.160156v128c0 4.417969 3.582031 8 8 8h128c4.417969 0 8-3.582031 8-8v-128zm-15.839844 4.6875-112 112v-81.375l93.457031-93.457031c12.550781 18.421875 19.035157 40.304687 18.542969 62.59375zm-56-84.6875c9.765625.167969 19.160156 3.753906 26.558594 10.128906l-82.558594 82.558594v-8.238281c0-46.570313 25.121094-84.449219 56-84.449219zm-36.6875 200 92.6875-92.6875v92.6875zm0 0"/><path d="m272 168c4.417969 0 8-3.582031 8-8v-32c0-4.417969-3.582031-8-8-8h-64.800781c-6.070313-67.464844-50-120-103.199219-120-57.34375 0-104 61.007812-104 136v336c0 4.417969 3.582031 8 8 8h32c4.417969 0 8-3.582031 8-8v-128h232v128c0 4.417969 3.582031 8 8 8h32c4.417969 0 8-3.582031 8-8v-184c0-4.417969-3.582031-8-8-8h-112v-32h96c4.417969 0 8-3.582031 8-8v-32c0-4.417969-3.582031-8-8-8h-96v-32zm-8-32v16h-56v-16zm-232 328h-16v-120h16zm264 0v-120h16v120zm16-136h-296v-32h296zm-296-48v-144c0-66.167969 39.480469-120 88-120s88 53.832031 88 120v144zm280-64v16h-88v-16zm0 0"/><path d="m128 304h64v16h-64zm0 0"/><path d="m224 480h32c4.417969 0 8-3.582031 8-8v-81.335938c-.636719-17.503906-15.292969-31.203124-32.800781-30.664062h-134.398438c-17.507812-.539062-32.164062 13.160156-32.800781 30.664062v81.335938c0 4.417969 3.582031 8 8 8h32c4.417969 0 8-3.582031 8-8v-16h104v16c0 4.417969 3.582031 8 8 8zm8-16v-8h16v8zm-152-56h168v32h-168zm0-17.335938c.644531-8.660156 8.132812-15.195312 16.800781-14.664062h134.398438c8.667969-.53125 16.15625 6.003906 16.800781 14.664062v1.335938h-168zm16 73.335938h-16v-8h16zm0 0"/></svg>