<svg height="472pt" viewBox="-48 0 472 472" width="472pt" xmlns="http://www.w3.org/2000/svg"><path d="m230.160156 147.007812c-1.519531-1.902343-3.820312-3.007812-6.257812-3.007812h-127.804688c-2.4375-.003906-4.742187 1.105469-6.261718 3.007812-1.519532 1.902344-2.089844 4.394532-1.546876 6.769532l25.453126 112c.832031 3.640625 4.066406 6.222656 7.800781 6.222656h76.914062c3.734375 0 6.96875-2.582031 7.800781-6.222656l25.453126-112c.539062-2.375-.03125-4.867188-1.550782-6.769532zm-38.089844 108.992188h-64.140624l-21.808594-96h107.757812zm0 0"/><path d="m136 176h48v16h-48zm0 0"/><path d="m144 208h32v16h-32zm0 0"/><path d="m0 432v40h16v-40c0-17.671875 14.328125-32 32-32h272c13.253906 0 24-10.746094 24-24s-10.746094-24-24-24h-136c-17.671875 0-32-14.328125-32-32v-16h16v8c0 13.253906 10.746094 24 24 24h128c22.089844 0 40 17.910156 40 40s-17.910156 40-40 40h-264c-13.253906 0-24 10.746094-24 24v32h16v-32c0-4.417969 3.582031-8 8-8h264c30.929688 0 56-25.070312 56-56s-25.070312-56-56-56h-128c-4.417969 0-8-3.582031-8-8v-8h27.199219c11.222656.042969 20.960937-7.726562 23.410156-18.679688l32.71875-144c1.617187-7.113281-.089844-14.578124-4.636719-20.28125-4.546875-5.703124-11.445312-9.03125-18.738281-9.039062h-11.953125v-88c0-13.253906-10.746094-24-24-24s-24 10.746094-24 24v88h-48v-88c0-13.253906-10.746094-24-24-24s-24 10.746094-24 24v88h-11.953125c-7.300781 0-14.203125 3.320312-18.757813 9.027344-4.558593 5.703125-6.265624 13.171875-4.648437 20.292968l32.734375 144c2.441406 10.960938 12.195312 18.738282 23.425781 18.679688h27.199219v16c.027344 26.5 21.5 47.972656 48 48h136c4.417969 0 8 3.582031 8 8s-3.582031 8-8 8h-272c-26.5.027344-47.9726562 21.5-48 48zm200-408c0-4.417969 3.582031-8 8-8s8 3.582031 8 8v32h-16zm0 48h16v40h-16zm-96-48c0-4.417969 3.582031-8 8-8s8 3.582031 8 8v32h-16zm0 48h16v40h-16zm-3.023438 209.777344-32.738281-144c-.539062-2.375.03125-4.867188 1.550781-6.769532 1.519532-1.902343 3.824219-3.011718 6.257813-3.007812h167.90625c2.433594 0 4.734375 1.109375 6.25 3.011719 1.519531 1.902343 2.089844 4.390625 1.550781 6.765625l-32.722656 144c-.832031 3.652344-4.085938 6.238281-7.832031 6.222656h-102.398438c-3.742187.011719-6.992187-2.574219-7.824219-6.222656zm0 0"/></svg>