<svg height="480pt" viewBox="0 0 480 480.00001" width="480pt" xmlns="http://www.w3.org/2000/svg"><path d="m459.496094 0h-175c-11.316406.0117188-20.488282 9.1875-20.496094 20.503906v15c0 9.589844 6.644531 17.898438 16 20v144.496094h-245.503906c-14.628906.019531-26.484375 11.875-26.496094 26.503906v5.496094c-4.417969 0-8 3.582031-8 8v32c0 4.417969 3.582031 8 8 8h.382812c2.78125 47.863281 38.464844 87.359375 85.800782 94.96875l-21.984375 95.199219c-.558594 2.382812 0 4.886719 1.519531 6.804687 1.523438 1.914063 3.835938 3.03125 6.28125 3.027344h344c4.417969 0 8-3.582031 8-8v-18.496094c-.03125-9.726562-6.59375-18.222656-16-20.703125v-37.96875c-.035156-13.414062 7.558594-25.679687 19.574219-31.632812 17.480469-8.664063 28.507812-26.523438 28.425781-46.03125v-37.167969h8c4.417969 0 8-3.582031 8-8v-32c0-4.417969-3.582031-8-8-8h-8v-176.535156c9.339844-2.101563 15.984375-10.386719 16-19.960938v-15c-.007812-11.320312-9.183594-20.4960935-20.503906-20.503906zm-435.496094 226.503906c.003906-5.796875 4.699219-10.496094 10.496094-10.503906h245.503906v16h-256zm.335938 53.496094h239.328124c-2.800781 44.164062-38.859374 78.878906-83.097656 80h-73.132812c-44.238282-1.121094-80.296875-35.835938-83.097656-80zm423.664062 37.167969c.050781 13.425781-7.542969 25.710937-19.574219 31.671875-17.46875 8.660156-28.492187 26.496094-28.425781 45.992187v37.167969h-178.585938l-13.980468-34.976562-14.867188 5.953124 16 40c1.21875 3.035157 4.160156 5.027344 7.433594 5.023438h194.496094c3.039062.003906 5.5 2.464844 5.503906 5.503906v10.496094h-325.945312l20.34375-88h70.203124c53.023438-1.195312 96.179688-43.035156 99.015626-96h168.382812zm16-53.167969h-448v-16h448zm-168-32v-176h152v176zm168-196.496094c-.003906 2.484375-2.019531 4.496094-4.503906 4.496094h-175c-2.484375 0-4.496094-2.011719-4.496094-4.496094v-15c0-2.484375 2.011719-4.5 4.496094-4.503906h175c2.488281 0 4.503906 2.015625 4.503906 4.503906zm0 0"/><path d="m368 72h-48c-4.417969 0-8 3.582031-8 8v32c0 4.417969 3.582031 8 8 8h48c4.417969 0 8-3.582031 8-8v-32c0-4.417969-3.582031-8-8-8zm-8 32h-32v-16h32zm0 0"/><path d="m270.855469 355.878906-13.710938 8.242188 15.960938 26.597656c6.566406 10.941406 18.488281 17.53125 31.246093 17.269531 12.757813-.261719 24.398438-7.332031 30.511719-18.53125l40.160157-73.601562-14.046876-7.664063-40.152343 73.601563c-3.363281 6.167969-9.773438 10.058593-16.796875 10.203125-7.027344.144531-13.589844-3.484375-17.203125-9.507813zm0 0"/></svg>