<svg height="480pt" viewBox="-104 0 480 480" width="480pt" xmlns="http://www.w3.org/2000/svg"><path d="m215.816406 53.800781c20.761719.039063 40.523438-8.90625 54.199219-24.527343 2.910156-3.324219 2.578125-8.378907-.742187-11.289063-29.910157-26.203125-75.398438-23.195313-101.601563 6.710937-.191406.226563-.257813.503907-.425781.738282-14.320313 14.796875-26.21875 31.765625-35.246094 50.277344-12.683594-44.738282-53.496094-75.6406255-100-75.710938-4.417969 0-8 3.582031-8 8 .074219 53.746094 41.054688 98.601562 94.574219 103.519531-2.984375 11.289063-4.949219 22.824219-5.871094 34.464844-18.824219-30.996094-52.441406-49.9375-88.703125-49.984375-4.417969 0-8 3.582031-8 8 .082031 54.285156 41.878906 99.386719 96 103.59375v24.40625h-76c-15.464844 0-28 12.535156-28 28v104c.058594 41.175781 21.941406 79.234375 57.496094 100h-65.496094v16h248v-16h-65.503906c35.558594-20.765625 57.441406-58.824219 57.503906-100v-104c0-15.464844-12.535156-28-28-28h-84v-56.40625c54.121094-4.207031 95.917969-49.308594 96-103.59375 0-4.417969-3.582031-8-8-8-28.832031.015625-56.355469 12.042969-75.953125 33.191406 7.996094-20.746094 19.761719-39.835937 34.707031-56.304687 12.042969 8.40625 26.375 12.914062 41.0625 12.914062zm-175.417968-37.402343c41.9375 4.082031 75.121093 37.265624 79.203124 79.203124-41.9375-4.082031-75.121093-37.265624-79.203124-79.203124zm183.601562 243.601562v52h-128v16h128v36c-.320312 52.65625-41.421875 96.042969-93.984375 99.210938-52.5625 3.164062-98.574219-34.972657-105.214844-87.210938h127.199219v-16h-128v-80h112v-16h-112v-4c0-6.628906 5.371094-12 12-12h176c6.628906 0 12 5.371094 12 12zm-5.863281-243.734375c11.824219-.820313 23.601562 2.175781 33.597656 8.542969-18.695313 15.554687-45.28125 17.3125-65.863281 4.351562 9.101562-7.636718 20.410156-12.15625 32.265625-12.894531zm-185.738281 96.132813c41.9375 4.082031 75.121093 37.265624 79.203124 79.203124-41.9375-4.082031-75.121093-37.265624-79.203124-79.203124zm175.203124-32c-4.082031 41.9375-37.265624 75.121093-79.203124 79.203124 4.082031-41.9375 37.265624-75.121093 79.203124-79.203124zm0 0"/></svg>