<svg height="480pt" viewBox="0 0 480 480" width="480pt" xmlns="http://www.w3.org/2000/svg"><path d="m96 168h16v24h-16zm0 0"/><path d="m96 240h16v40h-16zm0 0"/><path d="m176 368h104v16h-104zm0 0"/><path d="m453.335938 208h-114.671876c-14.71875.019531-26.644531 11.945312-26.664062 26.664062v34.671876c.015625 10.589843 6.296875 20.164062 16 24.398437v10.265625h-128v-16h-16v16h-8v-41.375c.007812-2.121094.851562-4.152344 2.34375-5.65625 3.160156-3.035156 8.152344-3.035156 11.3125 0l4.6875 4.6875 11.3125-11.3125-4.679688-4.6875c-9.5-9.066406-24.445312-9.066406-33.945312 0-4.515625 4.488281-7.050781 10.597656-7.03125 16.96875v41.375h-16v-200h-144v376h480v-176h-16v-10.265625c9.703125-4.234375 15.984375-13.808594 16-24.398437v-34.671876c-.019531-14.71875-11.945312-26.644531-26.664062-26.664062zm-125.335938 26.664062c.007812-5.886718 4.777344-10.65625 10.664062-10.664062h77.335938v56h-77.335938c-5.886718-.007812-10.65625-4.777344-10.664062-10.664062zm-16 85.335938v16h-168v-16zm-184-200v88h-112v-88zm0 344h-112v-240h112zm48 0v-16h104v16zm104-32h-104v-16h104zm-120-32v64h-16v-112h168v112h-16v-64zm208 64v-112h56v112zm96 0h-24v-128h-88v128h-24v-144h136zm-120-160v-8h104v8zm120-34.664062c-.007812 5.886718-4.777344 10.65625-10.664062 10.664062h-21.335938v-56h21.335938c5.886718.007812 10.65625 4.777344 10.664062 10.664062zm0 0"/><path d="m392 240h16v24h-16zm0 0"/><path d="m168 144h160v-16h-12.449219c2.878907-4.84375 4.417969-10.367188 4.449219-16 0-17.671875-14.328125-32-32-32-7.296875.027344-14.359375 2.570312-20 7.199219-11.605469-9.601563-28.394531-9.601563-40 0-11.9375-9.777344-29.167969-9.582031-40.878906.464843-11.710938 10.050782-14.523438 27.050782-6.671875 40.335938h-12.449219zm120-48c8.835938 0 16 7.164062 16 16s-7.164062 16-16 16-16-7.164062-16-16 7.164062-16 16-16zm-40 0c3.828125.023438 7.519531 1.425781 10.398438 3.953125-3.1875 7.714844-3.1875 16.378906 0 24.09375-5.363282 4.6875-13.179688 5.265625-19.175782 1.414063-5.992187-3.851563-8.71875-11.203126-6.683594-18.03125 2.035157-6.828126 8.335938-11.488282 15.460938-11.429688zm-56 16c-.039062-6.265625 3.601562-11.96875 9.300781-14.566406 5.699219-2.601563 12.394531-1.617188 17.097657 2.519531-3.1875 7.714844-3.1875 16.378906 0 24.09375-4.703126 4.136719-11.398438 5.121094-17.097657 2.519531-5.699219-2.597656-9.339843-8.300781-9.300781-14.566406zm0 0"/><path d="m384 368h24v16h-24zm0 0"/><path d="m344 18v44c.039062 36.433594 29.566406 65.960938 66 66h70v-128h-118c-9.9375.0117188-17.988281 8.0625-18 18zm120 94h-54c-27.601562-.03125-49.96875-22.398438-50-50v-44c0-1.105469.894531-2 2-2h102zm0 0"/><path d="m376 32h16v40h-16zm0 0"/></svg>