<svg height="480pt" viewBox="-40 0 480 480" width="480pt" xmlns="http://www.w3.org/2000/svg"><path d="m200 168c-57.410156.066406-103.933594 46.589844-104 104 0 4.136719.230469 8.167969.617188 12.128906 0 .71875 0 1.4375.09375 2.160156 1.59375 22.65625 11.414062 43.953126 27.609374 59.878907 19.316407 19.078125 45.386719 29.753906 72.535157 29.695312 1.898437.121094 3.046875.136719 3.144531.136719 3.894531 0 7.71875-.183594 11.464844-.519531 20.359375-1.214844 39.828125-8.769531 55.679687-21.601563l1.175781-.957031c1.175782-1.011719 2.320313-2.035156 3.433594-3.089844 21.359375-20.152343 33.09375-48.476562 32.246094-77.832031-.066406-57.410156-46.589844-103.933594-104-104zm50.457031 178.398438c-1.191406.800781-2.402343 1.601562-3.65625 2.3125-1.984375 1.121093-4.058593 2.136718-6.183593 3.113281-.617188.28125-1.21875.574219-1.847657.800781-2.210937.941406-4.511719 1.773438-6.882812 2.550781-.847657.273438-1.710938.539063-2.589844.800781-2.203125.648438-4.46875 1.222657-6.792969 1.710938-1.542968.320312-3.199218.578125-4.800781.800781-1.886719.304688-3.765625.625-5.734375.800781-3.792969.375-7.703125.640626-11.878906.640626h-.089844c-1.519531 0-2.929688-.152344-4.40625-.210938-22.015625-1.320312-42.972656-9.898438-59.59375-24.390625-.414062-.433594-.847656-.855469-1.265625-1.296875-.796875-.800781-1.503906-1.671875-2.253906-2.503906-11.308594-13.8125-18.222657-30.695313-19.847657-48.472656-.046874-5.324219 2.050782-10.445313 5.816407-14.214844l1.007812-1c5.910157-5.90625 15.492188-5.90625 21.40625 0 8.65625 8.269531 22.289063 8.269531 30.945313 0l6.550781-6.542969c2.300781-2.292969 6.019531-2.292969 8.320313 0l6.542968 6.550781c8.660156 8.273438 22.296875 8.273438 30.953125 0l6.550781-6.542968c2.300782-2.292969 6.019532-2.292969 8.320313 0l6.546875 6.542968c8.550781 8.527344 22.390625 8.527344 30.941406 0 1.546875-1.523437 3.769532-2.140625 5.882813-1.640625 2.109375.5 3.816406 2.050781 4.519531 4.105469.667969 1.988281.925781 4.09375.757812 6.183594-1.09375 13.40625-6.640624 47.550781-34.070312 67.785156-.976562.734375-2.082031 1.40625-3.167969 2.117188zm-50.457031-162.398438c40.273438.070312 75.367188 27.449219 85.230469 66.496094-7.253907-1.460938-14.757813.804687-20 6.03125-2.300781 2.285156-6.015625 2.285156-8.320313 0l-6.542968-6.542969c-8.546876-8.535156-22.394532-8.535156-30.941407 0l-6.554687 6.542969c-2.296875 2.296875-6.019532 2.296875-8.320313 0l-6.542969-6.550782c-8.554687-8.527343-22.398437-8.527343-30.953124 0l-6.550782 6.542969c-2.300781 2.285157-6.019531 2.285157-8.320312 0-10.21875-9.679687-25.558594-11.546875-37.800782-4.597656 9.347657-39.75 44.785157-67.859375 85.617188-67.921875zm0 0"/><path d="m254.503906 286.296875c-5.703125 26.109375-26.070312 41.703125-54.503906 41.703125-9.820312.171875-19.535156-2.023438-28.328125-6.398438l-7.34375 14.207032c11.058594 5.5625 23.296875 8.371094 35.671875 8.191406 35.953125 0 62.832031-20.800781 70.136719-54.296875zm0 0"/><path d="m8 0c-4.417969 0-8 3.582031-8 8v464c0 4.417969 3.582031 8 8 8h384c4.417969 0 8-3.582031 8-8v-464c0-4.417969-3.582031-8-8-8zm8 16h368v48h-368zm0 448v-384h368v384zm0 0"/><path d="m360 232h-30.023438c-19.914062-65.246094-85.011718-105.707031-152.332031-94.675781-67.316406 11.035156-116.097656 70.15625-114.144531 138.34375 1.957031 68.1875 54.042969 124.417969 121.882812 131.578125 67.839844 7.15625 130.515626-36.964844 146.65625-103.246094h27.960938c4.417969 0 8-3.582031 8-8v-56c0-4.417969-3.582031-8-8-8zm-160 160c-66.273438 0-120-53.726562-120-120s53.726562-120 120-120 120 53.726562 120 120c-.074219 66.242188-53.757812 119.925781-120 120zm152-104h-16v-40h16zm0 0"/><path d="m48 32h152v16h-152zm0 0"/><path d="m232 32h16v16h-16zm0 0"/><path d="m280 32h16v16h-16zm0 0"/><path d="m328 32h16v16h-16zm0 0"/><path d="m32 432h16v16h-16zm0 0"/><path d="m352 432h16v16h-16zm0 0"/><path d="m352 96h16v16h-16zm0 0"/><path d="m32 96h16v16h-16zm0 0"/></svg>