<svg height="480pt" viewBox="0 -80 480 480" width="480pt" xmlns="http://www.w3.org/2000/svg"><path d="m392 208c17.671875 0 32-14.328125 32-32s-14.328125-32-32-32-32 14.328125-32 32 14.328125 32 32 32zm0-48c8.835938 0 16 7.164062 16 16s-7.164062 16-16 16-16-7.164062-16-16 7.164062-16 16-16zm0 0"/><path d="m336 32h-304v224h416v-224zm-131.3125 16-156.6875 156.6875v-49.375l107.3125-107.3125zm-156.6875 0h84.6875l-84.6875 84.6875zm0 192v-12.6875l179.3125-179.3125h33.375l-192 192zm43.3125 0 192-192h20.6875v92.6875l-99.3125 99.3125zm136 0 76.6875-76.6875v76.6875zm108.6875 0h-16v-192h16zm96-192v192h-80v-192zm0 0"/><path d="m368 64h48v16h-48zm0 0"/><path d="m368 96h48v16h-48zm0 0"/><path d="m480 320v-320h-480v320h48v-32h384v32zm-16-16h-16v-16h16zm-432 0h-16v-16h16zm16-32h-32v-256h448v256zm0 0"/></svg>